<svg width="24" height="24" viewBox="0 0 24 24" fill="none" xmlns="http://www.w3.org/2000/svg">
<path d="M16 7C15.4477 7 15 7.44772 15 8C15 8.55228 15.4477 9 16 9V7ZM9 13C9 12.4477 8.55228 12 8 12C7.44772 12 7 12.4477 7 13H9ZM17.6667 17.2308L18.3057 16.4616L18.3057 16.4616L17.6667 17.2308ZM21 20L20.361 20.7692C20.6592 21.017 21.0738 21.07 21.4248 20.9053C21.7759 20.7405 22 20.3877 22 20H21ZM20 7H16V9H20V7ZM7 13V16H9V13H7ZM9 18H17.0277V16H9V18ZM17.0277 18L20.361 20.7692L21.639 19.2308L18.3057 16.4616L17.0277 18ZM22 20V9H20V20H22ZM17.0277 18H17.0277L18.3057 16.4616C17.9467 16.1633 17.4945 16 17.0277 16V18ZM7 16C7 17.1046 7.89543 18 9 18V16H7ZM20 9V9H22C22 7.89543 21.1046 7 20 7V9Z" fill="#ababab"/>
<path d="M6.33329 13.2308L5.69427 12.4616L5.69427 12.4616L6.33329 13.2308ZM3 16H2C2 16.3877 2.22415 16.7405 2.57516 16.9053C2.92617 17.07 3.34077 17.017 3.63902 16.7692L3 16ZM4 5H15V3H4V5ZM15 5V12H17V5H15ZM15 12H6.97231V14H15V12ZM5.69427 12.4616L2.36098 15.2308L3.63902 16.7692L6.9723 14L5.69427 12.4616ZM4 16V5H2V16H4ZM6.97231 12C6.50547 12 6.05335 12.1633 5.69427 12.4616L6.9723 14L6.97231 14V12ZM15 12V14C16.1046 14 17 13.1046 17 12H15ZM15 5H17C17 3.89543 16.1046 3 15 3V5ZM4 3C2.89543 3 2 3.89543 2 5H4V5V3Z" fill="#ababab"/>
</svg>
