<svg width="48" height="48" viewBox="0 0 48 48" fill="none" xmlns="http://www.w3.org/2000/svg">
<path d="M24 48C37.2548 48 48 37.2548 48 24C48 10.7452 37.2548 0 24 0C10.7452 0 0 10.7452 0 24C0 37.2548 10.7452 48 24 48Z" fill="#4EA561"/>
<path d="M12.264 36.108C12.024 36.108 11.832 36.084 11.688 36.036H10.968H10.32H10.068L8.448 35.64L8.304 35.352C8.28 35.352 8.268 35.22 8.268 34.956C8.268 34.62 8.256 34.344 8.232 34.128L8.196 32.472C8.172 32.112 8.16 31.572 8.16 30.852L8.088 28.08C8.088 27.48 8.112 26.652 8.16 25.596L8.196 24.372C8.244 23.604 8.268 22.344 8.268 20.592V20.34V19.872C8.22 19.8 8.196 19.668 8.196 19.476L8.16 19.224C8.16 18.624 8.196 18 8.268 17.352C8.316 16.536 8.34 15.792 8.34 15.12L8.304 14.112C8.28 13.848 8.268 13.536 8.268 13.176C8.268 13.152 8.244 13.116 8.196 13.068C8.172 13.02 8.16 12.972 8.16 12.924C8.16 12.684 8.256 12.48 8.448 12.312C8.64 12.144 8.88 12.024 9.168 11.952C9.552 11.832 10.044 11.772 10.644 11.772H16.728H19.536C19.56 11.772 19.596 11.796 19.644 11.844C19.692 11.892 19.74 11.928 19.788 11.952C19.98 12.12 20.22 12.444 20.508 12.924C20.58 13.068 20.652 13.236 20.724 13.428C20.82 13.596 20.94 13.872 21.084 14.256C21.252 14.64 21.48 15.228 21.768 16.02L22.2 17.136C22.392 17.496 22.608 18.012 22.848 18.684C22.92 18.876 22.992 19.068 23.064 19.26C23.16 19.452 23.244 19.644 23.316 19.836C23.364 20.004 23.412 20.136 23.46 20.232C23.532 20.304 23.568 20.352 23.568 20.376C23.736 20.76 23.916 20.952 24.108 20.952C24.348 20.952 24.54 20.76 24.684 20.376C24.708 20.352 24.732 20.304 24.756 20.232C24.78 20.136 24.84 19.992 24.936 19.8L25.476 18.612L26.916 15.552L27.528 14.256C27.6 14.064 27.648 13.908 27.672 13.788C27.72 13.644 27.768 13.548 27.816 13.5C27.912 13.284 28.14 12.912 28.5 12.384C28.62 12.192 28.728 12.048 28.824 11.952C28.896 11.928 28.944 11.892 28.968 11.844C28.992 11.796 29.028 11.772 29.076 11.772H31.884H37.968H38.508H38.868H39.336H40.128C40.176 11.772 40.236 11.952 40.308 12.312L40.416 15.84C40.464 16.848 40.488 18.432 40.488 20.592V22.68C40.488 23.496 40.452 24.408 40.38 25.416C40.308 26.424 40.26 27.072 40.236 27.36L40.164 28.08V29.34C40.188 29.676 40.2 30.18 40.2 30.852C40.2 31.572 40.212 32.112 40.236 32.472C40.236 33.168 40.26 33.648 40.308 33.912V34.956V35.352L40.2 35.64L38.58 36.036H38.328H37.68H36.96C36.792 36.084 36.588 36.108 36.348 36.108C35.916 36.108 35.316 36.084 34.548 36.036L33.648 36C33.48 35.976 33.288 35.952 33.072 35.928C32.856 35.904 32.592 35.892 32.28 35.892L30.876 35.784C30.828 35.784 30.792 35.796 30.768 35.82H30.48C30.36 35.82 30.288 35.688 30.264 35.424C30.12 34.944 30.048 34.128 30.048 32.976C30.048 32.208 30.036 31.608 30.012 31.176L29.976 29.232C29.952 28.8 29.94 28.176 29.94 27.36C29.94 27.168 29.856 27.072 29.688 27.072C29.592 27.072 29.496 27.192 29.4 27.432L29.004 28.404L28.68 29.304C28.632 29.448 28.584 29.592 28.536 29.736C28.488 29.88 28.428 30.012 28.356 30.132L28.176 30.564C27.96 31.044 27.684 31.584 27.348 32.184C26.988 32.832 26.544 33.348 26.016 33.732C25.728 33.9 25.476 33.984 25.26 33.984H24.72C24.432 33.984 24.192 33.96 24 33.912H23.208H22.488C21.528 32.376 20.628 30.696 19.788 28.872L19.248 27.54C19.104 27.228 19.008 27.072 18.96 27.072C18.792 27.072 18.708 27.168 18.708 27.36V29.052C18.708 30.732 18.684 31.968 18.636 32.76C18.588 34.008 18.504 34.872 18.384 35.352C18.36 35.664 18.288 35.82 18.168 35.82H17.916L17.736 35.784C16.92 35.832 16.272 35.88 15.792 35.928C15.504 35.952 15 35.988 14.28 36.036C13.56 36.084 12.888 36.108 12.264 36.108Z" fill="#EAEAEA"/>
</svg>
